<?xml version="1.0" encoding="utf-8"?>
<svg width="122" height="28" viewBox="0 0 122 28" fill="none" xmlns="http://www.w3.org/2000/svg">
  <defs>
    <linearGradient id="gradient_1" gradientUnits="userSpaceOnUse" x1="0" y1="0" x2="61.702" y2="18.417">
      <stop offset="0" stop-color="#3023AE" />
      <stop offset="1" stop-color="#3CDCF4" />
    </linearGradient>
  </defs>
  <g>
    <g>
      <path d="M9.78516 13.6055C9.78516 12.8555 9.52148 12.2773 8.99414 11.8711C8.4668 11.4648 7.51563 11.0547 6.14062 10.6406C4.76562 10.2266 3.67188 9.76563 2.85938 9.25781C1.30468 8.28124 0.527344 7.00782 0.527344 5.4375C0.527344 4.06249 1.08789 2.92969 2.20898 2.03906C3.33008 1.14843 4.78515 0.703125 6.57422 0.703125C7.76173 0.703125 8.8203 0.921873 9.75 1.35938C10.6797 1.79688 11.4102 2.41992 11.9414 3.22852C12.4727 4.03711 12.7383 4.93359 12.7383 5.91797L9.78516 5.91797C9.78516 5.02734 9.50586 4.33008 8.94727 3.82617C8.38867 3.32226 7.58985 3.07031 6.55078 3.07031C5.58202 3.07031 4.83008 3.27734 4.29492 3.69141C3.75977 4.10547 3.49219 4.68359 3.49219 5.42578C3.49219 6.05079 3.78125 6.57226 4.35938 6.99023C4.9375 7.40821 5.89062 7.81445 7.21875 8.20898C8.54688 8.60352 9.61328 9.05273 10.418 9.55664C11.2227 10.0605 11.8125 10.6387 12.1875 11.291C12.5625 11.9434 12.75 12.707 12.75 13.582C12.75 15.0039 12.2051 16.1348 11.1152 16.9746C10.0254 17.8145 8.54688 18.2344 6.67969 18.2344C5.4453 18.2344 4.31055 18.0059 3.27539 17.5488C2.24023 17.0918 1.43555 16.4609 0.861328 15.6562C0.287106 14.8516 0 13.9141 0 12.8438L2.96484 12.8438C2.96484 13.8125 3.28515 14.5625 3.92578 15.0938C4.56641 15.625 5.48437 15.8906 6.67969 15.8906C7.71095 15.8906 8.48633 15.6816 9.00586 15.2637C9.52539 14.8457 9.78516 14.293 9.78516 13.6055ZM17.8828 6.70312C18.8125 5.62499 19.9883 5.08594 21.4102 5.08594C24.1133 5.08594 25.4844 6.62889 25.5234 9.71484L25.5234 18L22.6758 18L22.6758 9.82031C22.6758 8.94531 22.4863 8.32617 22.1074 7.96289C21.7285 7.59961 21.1719 7.41797 20.4375 7.41797C19.2969 7.41797 18.4453 7.92578 17.8828 8.94141L17.8828 18L15.0352 18L15.0352 0L17.8828 0L17.8828 6.70312ZM35.9766 18C35.8516 17.7578 35.7422 17.3633 35.6484 16.8164C34.7422 17.7617 33.6328 18.2344 32.3203 18.2344C31.0469 18.2344 30.0078 17.8711 29.2031 17.1445C28.3984 16.418 27.9961 15.5195 27.9961 14.4492C27.9961 13.0976 28.498 12.0606 29.502 11.3379C30.5059 10.6152 31.9414 10.2539 33.8086 10.2539L35.5547 10.2539L35.5547 9.42188C35.5547 8.76562 35.3711 8.24024 35.0039 7.8457C34.6367 7.45117 34.0781 7.25391 33.3281 7.25391C32.6797 7.25391 32.1484 7.41601 31.7344 7.74023C31.3203 8.06446 31.1133 8.47656 31.1133 8.97656L28.2656 8.97656C28.2656 8.28125 28.4961 7.63086 28.957 7.02539C29.418 6.41992 30.0449 5.94531 30.8379 5.60156C31.6309 5.25781 32.5156 5.08594 33.4922 5.08594C34.9766 5.08594 36.1602 5.45898 37.043 6.20508C37.9258 6.95118 38.3789 7.99999 38.4023 9.35156L38.4023 15.0703C38.4023 16.2109 38.5625 17.1211 38.8828 17.8008L38.8828 18L35.9766 18ZM32.8477 15.9492C33.4102 15.9492 33.9395 15.8125 34.4355 15.5391C34.9316 15.2656 35.3047 14.8984 35.5547 14.4375L35.5547 12.0469L34.0195 12.0469C32.9648 12.0469 32.1719 12.2305 31.6406 12.5977C31.1094 12.9648 30.8438 13.4844 30.8438 14.1562C30.8438 14.7031 31.0254 15.1387 31.3887 15.4629C31.752 15.7871 32.2383 15.9492 32.8477 15.9492ZM48.0234 7.92188C47.6484 7.85938 47.2617 7.82812 46.8633 7.82812C45.5586 7.82812 44.6797 8.32812 44.2266 9.32812L44.2266 18L41.3789 18L41.3789 5.32031L44.0977 5.32031L44.168 6.73828C44.8555 5.63671 45.8086 5.08594 47.0273 5.08594C47.4336 5.08594 47.7695 5.14062 48.0352 5.25L48.0234 7.92188ZM55.4062 18.2344C53.6016 18.2344 52.1387 17.666 51.0176 16.5293C49.8965 15.3926 49.3359 13.8789 49.3359 11.9883L49.3359 11.6367C49.3359 10.3711 49.5801 9.24024 50.0684 8.24414C50.5566 7.24804 51.2422 6.47266 52.125 5.91797C53.0078 5.36328 53.9922 5.08594 55.0781 5.08594C56.8047 5.08594 58.1387 5.63671 59.0801 6.73828C60.0215 7.83985 60.4922 9.39843 60.4922 11.4141L60.4922 12.5625L52.207 12.5625C52.293 13.6094 52.6426 14.4375 53.2559 15.0469C53.8691 15.6563 54.6406 15.9609 55.5703 15.9609C56.875 15.9609 57.9375 15.4336 58.7578 14.3789L60.293 15.8438C59.7852 16.6016 59.1074 17.1895 58.2598 17.6074C57.4121 18.0254 56.4609 18.2344 55.4062 18.2344ZM55.0664 7.37109C54.2852 7.37109 53.6543 7.64453 53.1738 8.19141C52.6934 8.73828 52.3867 9.5 52.2539 10.4766L57.6797 10.4766L57.6797 10.2656C57.6172 9.3125 57.3633 8.5918 56.918 8.10352C56.4727 7.61523 55.8555 7.37109 55.0664 7.37109Z" fill="url(#gradient_1)" fill-rule="evenodd" transform="translate(60.313 4)" />
      <path d="M0 18L0 0.9375L5.03906 0.9375C6.8672 0.9375 8.2539 1.31445 9.19922 2.06836C10.1445 2.82227 10.6172 3.93359 10.6172 5.40234C10.6172 6.28516 10.377 7.05273 9.89648 7.70508C9.41601 8.35743 8.75782 8.82422 7.92188 9.10547C8.91407 9.32422 9.71289 9.8125 10.3184 10.5703C10.9238 11.3281 11.2266 12.2031 11.2266 13.1953C11.2266 14.7031 10.7402 15.8809 9.76758 16.7285C8.79492 17.5762 7.44141 18 5.70703 18L0 18ZM1.44141 9.79688L1.44141 16.7812L5.76562 16.7812C7.00001 16.7812 7.97851 16.4668 8.70117 15.8379C9.42383 15.209 9.78516 14.3359 9.78516 13.2188C9.78516 12.1641 9.43946 11.3301 8.74805 10.7168C8.05664 10.1035 7.10157 9.79688 5.88281 9.79688L1.44141 9.79688ZM1.44141 8.58984L5.37891 8.58984C6.58204 8.56641 7.51367 8.28321 8.17383 7.74023C8.83399 7.19726 9.16406 6.40626 9.16406 5.36719C9.16406 4.27343 8.82227 3.4668 8.13867 2.94727C7.45507 2.42773 6.42188 2.16797 5.03906 2.16797L1.44141 2.16797L1.44141 8.58984ZM15.9492 18L14.543 18L14.543 0L15.9492 0L15.9492 18ZM18.9844 11.4727C18.9844 10.2539 19.2207 9.15625 19.6934 8.17969C20.166 7.20312 20.834 6.44336 21.6973 5.90039C22.5606 5.35742 23.5391 5.08594 24.6328 5.08594C26.3203 5.08594 27.6875 5.67773 28.7344 6.86133C29.7813 8.04493 30.3047 9.61327 30.3047 11.5664L30.3047 11.8594C30.3047 13.0859 30.0684 14.1894 29.5957 15.1699C29.123 16.1504 28.457 16.9062 27.5977 17.4375C26.7383 17.9688 25.7578 18.2344 24.6562 18.2344C22.9766 18.2344 21.6113 17.6426 20.5605 16.459C19.5098 15.2754 18.9844 13.707 18.9844 11.7539L18.9844 11.4727ZM20.3906 11.8594C20.3906 13.375 20.7832 14.6191 21.5684 15.5918C22.3535 16.5645 23.3828 17.0508 24.6562 17.0508C25.9219 17.0508 26.9473 16.5645 27.7324 15.5918C28.5176 14.6191 28.9102 13.3359 28.9102 11.7422L28.9102 11.4727C28.9102 10.5039 28.7305 9.61719 28.3711 8.8125C28.0117 8.00781 27.5078 7.38477 26.8594 6.94336C26.2109 6.50195 25.4688 6.28125 24.6328 6.28125C23.3828 6.28125 22.3633 6.77148 21.5742 7.75195C20.7852 8.73243 20.3906 10.0156 20.3906 11.6016L20.3906 11.8594ZM37.8867 17.0508C38.8633 17.0508 39.6816 16.7754 40.3418 16.2246C41.002 15.6738 41.3594 14.9609 41.4141 14.0859L42.7617 14.0859C42.7227 14.8594 42.4805 15.5644 42.0352 16.2012C41.5898 16.8379 40.9981 17.3359 40.2598 17.6953C39.5215 18.0547 38.7305 18.2344 37.8867 18.2344C36.2226 18.2344 34.9043 17.6563 33.9316 16.5C32.959 15.3437 32.4727 13.7891 32.4727 11.8359L32.4727 11.4141C32.4727 10.1641 32.6914 9.0586 33.1289 8.09766C33.5664 7.13671 34.1934 6.39453 35.0098 5.87109C35.8262 5.34765 36.7812 5.08594 37.875 5.08594C39.2656 5.08594 40.4121 5.5 41.3145 6.32812C42.2168 7.15625 42.6992 8.24609 42.7617 9.59766L41.4141 9.59766C41.3516 8.60546 40.9941 7.80469 40.3418 7.19531C39.6894 6.58593 38.8672 6.28125 37.875 6.28125C36.6094 6.28125 35.627 6.73828 34.9277 7.65234C34.2285 8.56641 33.8789 9.84765 33.8789 11.4961L33.8789 11.9062C33.8789 13.5234 34.2285 14.7852 34.9277 15.6914C35.627 16.5977 36.6133 17.0508 37.8867 17.0508ZM48.5742 11.6133L46.9688 13.1602L46.9688 18L45.5625 18L45.5625 0L46.9688 0L46.9688 11.5195L48.293 10.0898L53.1445 5.32031L54.9141 5.32031L49.5352 10.6641L55.3828 18L53.707 18L48.5742 11.6133Z" fill="#4A4A4A" fill-rule="evenodd" transform="translate(2.334 4)" />
    </g>
  </g>
</svg>