<?xml version="1.0" ?><svg height="512" id="svg4156" version="1.1" width="512" xmlns="http://www.w3.org/2000/svg" xmlns:cc="http://creativecommons.org/ns#" xmlns:dc="http://purl.org/dc/elements/1.1/" xmlns:inkscape="http://www.inkscape.org/namespaces/inkscape" xmlns:rdf="http://www.w3.org/1999/02/22-rdf-syntax-ns#" xmlns:sodipodi="http://sodipodi.sourceforge.net/DTD/sodipodi-0.dtd" xmlns:svg="http://www.w3.org/2000/svg"><defs id="defs4158"/><g id="layer1" transform="translate(0,448)"><g id="g27095" style="fill:#4d4d4d;fill-opacity:1" transform="matrix(0.94117684,0,0,0.94117684,-1110.4417,-9004.1504)"><path d="m 1277.5938,9555.9062 c -15.3912,0 -28.1563,12.7563 -28.1563,28.1563 l 0,453.6875 c 0,15.388 12.7571,28.156 28.1563,28.156 l 348.5312,0 c 15.388,0 28.125,-12.757 28.125,-28.156 l 0,-453.6875 c 0,-15.392 -12.734,-28.1563 -28.125,-28.1563 l -348.5312,0 z m -0.9376,25.125 c 0.1059,-0.01 0.1995,0 0.3126,0 l 349.7812,0 c 1.828,0 3,1.337 3,3.375 l 0,410.75 -355.8125,0 0,-410.75 c 0,-0.2549 0,-0.4565 0.031,-0.6874 0.188,-1.159 0.8542,-2.0688 1.7812,-2.4688 0.186,-0.07 0.3868,-0.1525 0.5938,-0.1875 0.1035,-0.025 0.2066,-0.025 0.3124,-0.031 z m 174.5626,427.9068 c 0.4669,0 0.9382,-0.02 1.4062,0 3.398,0.126 6.8376,1.114 9.9688,2.968 10.0228,5.938 13.3432,18.853 7.4062,28.875 -5.902,9.964 -18.737,13.35 -28.75,7.531 l -0.1562,-0.124 c -10.0221,-5.937 -13.3433,-18.853 -7.4063,-28.876 3.825,-6.459 10.5452,-10.17 17.5313,-10.374 z" id="path8037-0" style="fill:#4d4d4d;fill-opacity:1;fill-rule:nonzero;stroke:none" transform="translate(0,-448)"/><path d="m 1482.3125,9705.7812 c -5.821,1.9491 -15.4835,3.9103 -21.3125,11.6563 -6.767,8.699 -9.6575,12.5812 -8.6875,26.1563 19.355,1.915 33.8702,-18.4165 32.9063,-37.8126 l -2.9063,0 z m 2.5937,39.5 c -8.181,-0.039 -15.7687,2.979 -24.8437,6 -8.707,2.9111 -10.6613,0.9815 -18.4063,-1.9374 -23.2439,-8.6981 -40.611,0.013 -51.25,19.375 -4.859,8.7479 -3.9117,15.4779 -5.8437,19.375 l 0,14.5 c 0.962,1.957 2.9337,14.5049 5.8437,22.25 2.895,10.6559 11.5988,26.1924 19.3438,33.9374 8.708,10.656 5.776,6.7991 14.5,11.625 l 6.7812,0 c 3.8741,-1.916 18.3893,-6.7812 25.1563,-6.7812 3.872,0 8.7217,1.9425 12.5937,2.9375 3.8731,1.916 8.7381,2.9147 11.625,3.8437 l 3.8438,0 c 7.746,-2.9099 6.804,-0.9612 12.625,-6.7812 6.784,-6.816 12.5957,-14.5125 16.4688,-23.1875 1.9559,-2.91 4.7952,-10.7395 5.7812,-12.6875 l 0,-0.9062 c -11.609,-4.834 -20.3515,-17.4661 -21.3125,-31 -1.917,-17.4381 5.8065,-25.176 16.4375,-33.875 -1.925,-4.868 -7.711,-9.7061 -13.5,-12.625 -5.808,-2.904 -10.9368,-4.0425 -15.8438,-4.0626 z" id="path8412" style="fill:#4d4d4d;fill-opacity:1;fill-rule:nonzero;stroke:none" transform="translate(0,-448)"/></g></g></svg>