<svg viewBox="0 0 90 30" fill="none" xmlns="http://www.w3.org/2000/svg" width="232" alt="Viasat, Inc. Logo" class="display--block" style="width: 90px;">
                  <path fill-rule="evenodd" clip-rule="evenodd" d="M72.37 8.75c-.74.25-1.356.875-1.48 1.5l-1.725 6-.37-1.5c-.247-.875-1.11-1.375-1.973-1.125a1.608 1.608 0 0 0-1.11 2L66.7 19c.246.875 1.11 1.375 1.972 1.125.617-.125.987-.625 1.11-1.125l1.603-5.875 1.48 5.375c.369 1.25 1.602 1.875 2.711 1.5.74-.25 1.357-.875 1.48-1.5L80.26 7.125l3.082 10.75c.494 1.625 2.22 2.625 3.823 2.125 1.602-.5 2.588-2.25 2.095-3.875l-3.822-13.25C84.945 1.25 83.22.25 81.616.75 80.507 1 79.767 1.875 79.522 3l-3.206 11.5-1.233-4.25c-.246-1.125-1.48-1.875-2.712-1.5ZM66.457 27.5l-.203.519-.124.347h-.017l-.123-.347-.206-.519h-.322v1.385h.245v-.613l-.03-.468h.02l.32.866h.207l.322-.866h.016l-.03.469v.612h.242V27.5h-.317Zm-2.347 0v.241h.435v1.144h.264v-1.144h.441V27.5h-1.14Zm-1.973-7.375c1.356 0 1.603-.625 1.603-1.625 0-.875-.247-1.5-1.603-1.75-1.356 0-1.603.75-1.603 1.625v.125c0 .875.247 1.625 1.603 1.625Zm-4.931 8.625c.616.625 1.479.75 2.342.75 1.05 0 1.953-.225 2.593-.384.186-.047.35-.088.49-.116.616-.125.616-.5.492-1.5l-.087-.321c-.17-.645-.24-.912-.776-.804-.157.023-.314.05-.469.076-.696.12-1.346.23-1.75-.076-.37-.25-.493-.5-.493-1.5v-10c0-1-.123-1.25-1.726-1.25s-1.726.25-1.726 1.25V17h-1.603c-.74 0-.986.125-.986 1.5s.247 1.5.986 1.5h1.603v5.5c0 1.125.123 2.375 1.11 3.25Zm-13.874-9.51c.193.8.241 1 .805.885.046 0 .332-.07.717-.163.648-.158 1.577-.384 2.119-.462 1.48 0 1.972.625 1.972 1.75v.625c-.616-.125-1.233-.125-1.849-.125-2.836 0-4.808 1-4.808 3.875 0 3 2.342 3.875 5.301 3.875 1.85 0 3.329-.5 3.822-.75.493-.25.863-.5.863-1.25V23c0-.344.004-.646.008-.918.017-1.207.025-1.811-.378-2.832-.37-1.125-1.603-2.375-3.945-2.375-1.769 0-3.116.356-3.776.53-.214.057-.355.095-.416.095-.616.25-.616.5-.493 1.5l.058.24Zm5.737 7.635c-.37.125-.863.25-1.357.25-1.356 0-2.096-.375-2.219-1.5 0-1.25.863-1.5 1.973-1.5.493 0 .863 0 1.48.125.123 0 .123.125.123.125v2.5Zm-12.576 2.75c1.48 0 2.59-.5 3.206-1 .863-.625 1.356-1.75 1.11-2.875 0-.875-.247-1.625-1.11-2.375-.504-.51-1.171-.77-2.07-1.121a49.106 49.106 0 0 1-1.094-.438c-.655-.256-1.151-.451-1.151-1.066 0-.625.616-.875 1.11-.875.831 0 1.664.21 2.288.37.208.052.393.099.547.13.564.114.612-.085.805-.885l.058-.24c.246-1 .246-1.375-.37-1.5-.616-.25-1.603-.625-3.575-.625-2.59 0-4.069 1.625-4.069 3.625.123 2.625 2.096 3.375 3.576 3.75 1.232.25 1.849.75 1.849 1.5-.123.75-.617 1-1.356 1-.526 0-1.28-.186-1.986-.359-.451-.111-.883-.217-1.22-.266-.616-.125-.74.25-.863 1.25s-.123 1.125.493 1.375c0 0 1.85.625 3.822.625ZM21.387 19.24c.193.8.241 1 .805.885 0 0 1.973-.5 2.712-.625 1.48 0 1.973.625 1.973 1.75v.625c-.617-.125-1.233-.125-1.85-.125-2.835 0-4.808 1-4.808 3.875 0 3 2.343 3.875 5.302 3.875 1.849 0 3.328-.5 3.822-.75.493-.25.863-.5.863-1.25V23c0-.344.004-.646.007-.918.017-1.207.025-1.811-.377-2.832-.37-1.125-1.603-2.375-3.945-2.375-1.77 0-3.116.356-3.776.53-.214.057-.356.095-.416.095-.617.125-.617.5-.37 1.5l.058.24ZM27 26.875c-.37.125-.863.25-1.356.25-1.356 0-2.096-.375-2.22-1.5 0-1.25.864-1.5 1.973-1.5.494 0 .863 0 1.48.125.123 0 .123.125.123.125v2.5ZM14.795 28.25c0 1 .123 1.25 1.726 1.25 1.602 0 1.726-.25 1.726-1.25v-9.875c0-1-.124-1.25-1.726-1.25-1.603 0-1.726.25-1.726 1.25v9.875ZM9.863 15c.247-1 .493-1.25 1.973-1.25s1.726.25 1.726 1.25L9.74 28.25c-.37 1-.987 1.25-2.59 1.25-1.602 0-2.218-.25-2.588-1.25L.74 15c-.247-1 0-1.25 1.48-1.25 1.479 0 1.725.25 1.972 1.25l2.835 10.75L9.863 15Z" fill="#fff"></path>
                 </svg>