<svg fill="none" xmlns="http://www.w3.org/2000/svg" viewBox="0 0 600 200" style="width: 90px; padding-bottom: 12px;" alt="Viasat Logo" class="display--block">
                  <title>Viasat Logo</title><path d="M482.47 58.33c-4.94 1.67-9.05 5.84-9.87 10l-11.5 40-2.47-10c-1.64-5.83-7.4-9.16-13.15-7.5a10.72 10.72 0 00-7.4 13.34l6.58 22.5c1.64 5.83 7.4 9.16 13.15 7.5 4.1-.84 6.57-4.17 7.4-7.5l10.68-39.17 9.86 35.83c2.47 8.34 10.69 12.5 18.09 10 4.93-1.66 9.04-5.83 9.86-10l21.37-75.83 20.55 71.67c3.28 10.83 14.8 17.5 25.48 14.16 10.68-3.33 17.26-15 13.97-25.83l-25.48-88.33C566.3 8.33 554.79 1.67 544.1 5c-7.4 1.67-12.33 7.5-13.97 15l-21.37 76.67-8.22-28.34c-1.65-7.5-9.87-12.5-18.08-10z" fill="url(#paint_logo-33c7421723_linear)"></path> <path fill-rule="evenodd" clip-rule="evenodd" d="M443.05 183.33l-1.36 3.46-.82 2.32h-.12l-.82-2.32-1.37-3.46h-2.15v9.24h1.64v-4.09l-.2-3.12h.13l2.13 5.77h1.38l2.15-5.77h.1l-.2 3.12v4.09h1.62v-9.24h-2.11zm-15.65 0v1.61h2.9v7.63h1.76v-7.63H435v-1.6h-7.6zM424.93 123.33c0 6.67-1.64 10.84-10.68 10.84-9.05 0-10.69-5-10.69-10.84v-.83c0-5.83 1.64-10.83 10.69-10.83 9.04 1.66 10.68 5.83 10.68 11.66zM397 196.67c-5.76 0-11.51-.84-15.62-5-6.57-5.84-7.4-14.17-7.4-21.67v-36.67H363.3c-4.93 0-6.58-.83-6.58-10 0-9.16 1.65-10 6.58-10h10.68V99.17c0-6.67.82-8.34 11.51-8.34 10.68 0 11.5 1.67 11.5 8.34v66.66c0 6.67.83 8.34 3.3 10 3.28 2.5 9.04.84 14.79 0 4.1-.83 4.1 1.67 5.75 7.5.82 6.67.82 9.17-3.29 10-4.1.84-11.5 3.34-20.54 3.34zm-102.74-62.5c-4.11.83-4.11-.84-5.76-7.5-.82-6.67-.82-8.34 3.3-10 1.63 0 12.32-4.17 27.94-4.17 15.61 0 23.83 8.33 26.3 15.83 3.29 8.34 2.46 12.5 2.46 25v30c0 5-2.46 6.67-5.75 8.34-3.29 1.66-13.15 5-25.48 5-19.73 0-35.34-5.84-35.34-25.84 0-19.16 13.15-25.83 32.05-25.83 4.11 0 8.22 0 12.33.83v-4.16c0-7.5-3.29-11.67-13.15-11.67-5.75.83-18.08 4.17-18.9 4.17zm23.83 46.66c3.29 0 6.58-.83 9.04-1.66V162.5s0-.83-.82-.83c-4.1-.84-6.57-.84-9.86-.84-7.4 0-13.15 1.67-13.15 10 .82 7.5 5.75 10 14.8 10zm-53.42 10c-4.11 3.34-11.5 6.67-21.37 6.67-13.15 0-25.48-4.17-25.48-4.17-4.11-1.66-4.11-2.5-3.29-9.16.82-6.67 1.64-9.17 5.75-8.34 5.76.84 15.62 4.17 21.37 4.17 4.94 0 8.22-1.67 9.05-6.67 0-5-4.12-8.33-12.33-10-9.87-2.5-23.02-7.5-23.84-25 0-13.33 9.86-24.16 27.12-24.16 13.16 0 19.73 2.5 23.84 4.16 4.1.84 4.1 3.34 2.46 10-1.64 6.67-1.64 8.34-5.75 7.5-4.1-.83-11.5-3.33-18.9-3.33-3.29 0-7.4 1.67-7.4 5.83 0 5 4.93 5.84 10.69 8.34 8.21 3.33 13.97 5 18.08 9.16 5.75 5 7.4 10 7.4 15.84 1.64 7.5-1.65 15-7.4 19.16zm-116.72-56.66c-4.1.83-4.1-.84-5.75-7.5-1.64-6.67-1.64-9.17 2.47-10 1.64 0 12.33-4.17 27.94-4.17 15.62 0 23.84 8.33 26.3 15.83 3.3 8.34 2.47 12.5 2.47 25v30c0 5-2.47 6.67-5.75 8.34-3.3 1.66-13.15 5-25.48 5-19.73 0-35.34-5.84-35.34-25.84 0-19.16 13.14-25.83 32.05-25.83 4.1 0 8.22 0 12.33.83v-4.16c0-7.5-3.29-11.67-13.15-11.67-4.93.83-18.09 4.17-18.09 4.17zm23.02 46.66c3.29 0 6.57-.83 9.04-1.66V162.5s0-.83-.82-.83c-4.11-.84-6.58-.84-9.87-.84-7.4 0-13.15 1.67-13.15 10 .83 7.5 5.76 10 14.8 10zm-60.82 15.84c-10.69 0-11.51-1.67-11.51-8.34V122.5c0-6.67.82-8.33 11.5-8.33 10.7 0 11.51 1.66 11.51 8.33v65.83c0 6.67-.82 8.34-11.5 8.34zm-31.24-105c-9.86 0-11.5 1.66-13.15 8.33l-18.9 71.67L27.95 100c-1.65-6.67-3.3-8.33-13.16-8.33S3.3 93.33 4.93 100l25.48 88.33c2.47 6.67 6.58 8.34 17.26 8.34 10.69 0 14.8-1.67 17.26-8.34L90.41 100c0-6.67-1.64-8.33-11.5-8.33z" fill="#202E39"></path> <defs>
                   <linearGradient id="paint_logo-33c7421723_linear" x1="461.47" y1="165.02" x2="601.96" y2="108.86" gradientUnits="userSpaceOnUse">
                    <stop stop-color="#24343C"></stop>
                    <stop offset="0.04" stop-color="#263942"></stop>
                    <stop offset="0.08" stop-color="#2B4652"></stop>
                    <stop offset="0.13" stop-color="#2A5668"></stop>
                    <stop offset="0.19" stop-color="#036885"></stop>
                    <stop offset="0.25" stop-color="#0077A3"></stop>
                    <stop offset="0.28" stop-color="#007EB5"></stop>
                    <stop offset="0.33" stop-color="#0082BB"></stop>
                    <stop offset="0.4" stop-color="#008ECB"></stop>
                    <stop offset="0.48" stop-color="#009FE3"></stop>
                    <stop offset="0.51" stop-color="#00A7CE"></stop>
                    <stop offset="0.56" stop-color="#01B3B1"></stop>
                    <stop offset="0.62" stop-color="#68BE94"></stop>
                    <stop offset="0.67" stop-color="#8EC676"></stop>
                    <stop offset="0.73" stop-color="#A7CC58"></stop>
                    <stop offset="0.79" stop-color="#B9D13B"></stop>
                    <stop offset="0.85" stop-color="#C5D41F"></stop>
                    <stop offset="0.92" stop-color="#CCD600"></stop>
                    <stop offset="1" stop-color="#CED700"></stop>
                   </linearGradient>
                  </defs>
                 </svg>