<?xml version="1.0" encoding="UTF-8"?>
<svg id="Layer_1" xmlns="http://www.w3.org/2000/svg" version="1.1" viewBox="0 0 98.09 82.7">
  <!-- Generator: Adobe Illustrator 29.5.1, SVG Export Plug-In . SVG Version: 2.1.0 Build 141)  -->
  <defs>
    <style>
      .st0 {
        fill: none;
        stroke: #fff;
        stroke-miterlimit: 10;
      }

      .st1, .st2 {
        fill: #fff;
      }

      .st2 {
        isolation: isolate;
        opacity: .86;
      }
    </style>
  </defs>
  <circle class="st0" cx="45.6" cy="41.69" r="40.14"/>
  <g>
    <circle class="st1" cx="43.23" cy="9.26" r=".45"/>
    <circle class="st1" cx="47.85" cy="9.86" r=".45"/>
    <circle class="st1" cx="53.91" cy="18.02" r=".45"/>
    <circle class="st1" cx="20.67" cy="60.02" r=".45"/>
    <circle class="st1" cx="21.84" cy="63.62" r=".45"/>
    <circle class="st1" cx="16.26" cy="60.56" r=".34"/>
    <circle class="st1" cx="34.56" cy="67.63" r=".34"/>
    <circle class="st1" cx="63.26" cy="61.67" r=".34"/>
    <circle class="st1" cx="71.6" cy="52.61" r=".34"/>
    <circle class="st1" cx="30.72" cy="20.65" r=".34"/>
    <circle class="st1" cx="39.9" cy="13.91" r=".34"/>
    <circle class="st1" cx="38.9" cy="13.25" r=".34"/>
    <circle class="st1" cx="38" cy="12.59" r=".34"/>
    <circle class="st1" cx="32.16" cy="22.39" r=".34"/>
    <circle class="st1" cx="45.68" cy="4.85" r=".34"/>
    <circle class="st1" cx="47.9" cy="14.57" r=".34"/>
    <circle class="st1" cx="44.4" cy="12.67" r=".34"/>
    <circle class="st1" cx="38.4" cy="15.25" r=".34"/>
    <circle class="st1" cx="64.86" cy="70.57" r=".34"/>
    <circle class="st1" cx="20.1" cy="62.3" r=".34"/>
    <circle class="st1" cx="43.56" cy="66.65" r=".34"/>
    <circle class="st1" cx="27.08" cy="62.03" r=".34"/>
    <circle class="st1" cx="30" cy="66.79" r=".34"/>
    <circle class="st1" cx="51.48" cy="63.79" r=".34"/>
    <circle class="st1" cx="63.32" cy="57.11" r=".34"/>
    <circle class="st1" cx="72.3" cy="61.21" r=".34"/>
    <circle class="st1" cx="75.36" cy="63.17" r=".34"/>
    <circle class="st1" cx="75.86" cy="57.83" r=".34"/>
    <circle class="st1" cx="31.22" cy="50.27" r=".34"/>
    <circle class="st1" cx="31.35" cy="58.01" r=".45"/>
    <circle class="st1" cx="34.05" cy="63.71" r=".45"/>
    <circle class="st1" cx="66.39" cy="57.77" r=".45"/>
    <circle class="st1" cx="78.03" cy="57.11" r=".45"/>
    <circle class="st1" cx="72.27" cy="54.65" r=".45"/>
    <circle class="st1" cx="66.39" cy="54.89" r=".45"/>
    <path class="st1" d="M54.26,8.98l1.12-.11-1.12-.06c-.03-.22-.21-.39-.43-.41l-.11-1.11-.06,1.12c-.2.05-.36.21-.38.42l-1.14.1,1.15.06c.04.19.2.34.39.38l.1,1.15.06-1.15c.21-.03.37-.19.41-.4h.01Z"/>
    <path class="st1" d="M35.37,21.44l1.12-.11-1.12-.06c-.03-.22-.21-.39-.43-.41l-.11-1.11-.06,1.12c-.2.05-.36.21-.38.42l-1.14.1,1.15.06c.04.19.2.34.39.38l.1,1.15.06-1.15c.21-.03.37-.19.41-.4h.01Z"/>
    <path class="st1" d="M77.21,54.37l1.12-.11-1.12-.06c-.03-.22-.21-.38-.43-.41l-.11-1.11-.06,1.12c-.2.04-.36.21-.38.42l-1.14.1,1.15.06c.04.19.2.34.39.38l.1,1.15.06-1.15c.21-.03.37-.19.41-.4h0Z"/>
    <path class="st1" d="M31.59,71.6l1.12-.11-1.12-.06c-.03-.22-.21-.39-.43-.41l-.11-1.11-.06,1.12c-.2.04-.36.21-.38.42l-1.14.1,1.15.06c.04.19.2.35.39.38l.1,1.15.06-1.15c.21-.03.37-.19.41-.4h.01Z"/>
    <path class="st1" d="M73.65,63.2l1.12-.11-1.12-.06c-.03-.22-.21-.39-.43-.41l-.11-1.11-.06,1.12c-.2.04-.36.21-.38.42l-1.14.1,1.15.06c.04.19.2.34.39.38l.1,1.15.06-1.15c.21-.03.37-.19.41-.4h0Z"/>
    <path class="st2" d="M55.12,32.07c-4.67,1.81-9.22,3.43-13.06,4.63-7.81,2.44-29.16,9.06-42.06,17.4l1.08.42c7.86-4.44,12.97-5.83,17.88-7.38,5.34-1.68,22.6-5.72,30.42-7.92,2.64-.74,5.73-1.72,9.01-2.9-.76-1.06-1.57-2.13-2.41-3.19-.28-.36-.57-.71-.86-1.06ZM60.82,39.93c-1.13.76-2.08,1.37-2.74,1.76-3.84,2.22-22.56,15-26.82,17.94s-16.08,14.1-19.56,17.34l-.12,1.32c11.22-10.08,14.74-12.57,19.2-15.96,5.52-4.2,16.94-11.97,20.82-14.46,3.71-2.38,7.06-4.57,10.06-6.57-.05-.08-.1-.16-.15-.25-.23-.37-.46-.74-.69-1.12ZM78.36,21.41c-5.47,3.2-14.08,7.07-22.44,10.35.2.24.4.49.6.74.93,1.18,1.81,2.36,2.64,3.55,6.57-2.42,13.78-5.67,19.5-9.6-2.72,2.58-11.73,9.31-17.23,13.07.28.46.56.92.82,1.38,8.32-5.57,13.92-9.67,17.18-12.41,4.5-3.78,14.76-12.24,18.66-23.58-6.84,8.7-14.93,13.68-19.74,16.5h.01Z"/>
    <path class="st1" d="M40.43,51.63c-.88-1.11-2.11-2.61-3.03-3.76-1.23-1.55-2.37-3.11-3.41-4.67-.34.08-.68.17-1.02.26,1.26,1.96,2.65,3.92,4.18,5.84,1.11,1.4,2.12,2.53,2.64,3.23.1.14.31.46.59.87.32-.22.65-.44.98-.67-.32-.35-.63-.71-.94-1.1h0ZM46.89,57.49c-.73-.69-2.49-1.84-4.33-3.56-.4.28-.81.56-1.22.84,1.19,1.67,2.8,3.72,4.06,4.32,1.9.9,2.42-.72,1.49-1.6ZM56.52,32.5c-10.49-13.21-23.31-20.46-28.83-16.07-4.29,3.41-2.53,13.38,3.39,23.84.31-.1.61-.21.91-.31-5.97-10.2-7.6-19.68-3.56-22.9,5.09-4.04,17.37,3.24,27.56,16.06,2.11,2.65,3.96,5.32,5.53,7.92,6.01,9.95,7.86,18.95,3.7,22.62-1.27,1.12-5.15,1.57-10.24-.72-.07.09.04.33.13.39,4.39,1.77,8.6,2.44,10.72.75,5.1-4.06,1.18-18.38-9.31-31.58h0Z"/>
    <path class="st1" d="M11.52,34.07h6.72l5.64,9.57v-7.47c0-.84-1.07-1.94-1.44-2.1h4.65c-.28.08-1.2,1.19-1.2,2.1v10.98c0,.67.98,1.6,1.44,1.97h-6.48l-5.73-9.62v7.56c0,.75.74,1.47,1.5,2.08h-4.95c.7-.3,1.38-1.24,1.44-1.99s0-10.42,0-10.85c0-.91-.89-1.66-1.59-2.23Z"/>
    <path class="st1" d="M72.99,49.11h8.94c-.5-.12-1.05-.71-1.35-1.49-.3-.78-5.04-13.56-5.04-13.56h-3.4c-.96.69-2,1.43-3.1,2.2,0,.03,0,.06-.01.08-.15.9-2.81,10.53-2.97,11.01-.22.66-1.38,1.4-1.85,1.78h4.82c-.48-.54-.87-1.06-.78-1.67.09-.6.36-1.8.36-1.8h4.98c.22.6.39,1.14.48,1.65.1.62-.53,1.31-1.08,1.78v.02ZM69.06,43.76l1.68-5.49,2.22,5.49h-3.9ZM68.3,34.62c.25-.18.5-.37.74-.55h-1.31c.13.12.35.31.56.55h.01Z"/>
    <path class="st1" d="M34.11,47.48c.09-.6.36-1.8.36-1.8h4.98c.22.6.39,1.14.48,1.65.1.62-.53,1.31-1.08,1.78h7.87c.16-.11.33-.22.49-.33-.31-.27-.59-.67-.77-1.16-.3-.78-5.04-13.56-5.04-13.56h-7.8c.38.35,1.46,1.28,1.29,2.28-.15.9-2.81,10.53-2.97,11.01-.22.66-1.38,1.4-1.85,1.78h4.81c-.48-.54-.87-1.07-.78-1.67v.02ZM36.6,38.27l2.22,5.49h-3.9l1.68-5.49Z"/>
    <path class="st1" d="M61.3,41.54c-1.47.98-3.02,2-4.65,3.06.73.35,1.31.8,1.37,1.38.1,1.08-2.07,1.6-4.03,1.38-.39-.04-.78-.15-1.15-.29-.41.26-.82.53-1.24.8-.42.27-.94.61-1.53,1v1.55c.39-.76,1.24-1.45,1.9-1.49.28,0,1.28.9,5.35.67,1.98-.11,5.81-2.22,5.75-4.65-.04-1.44-.79-2.56-1.78-3.42h.01ZM50.07,45.29v1.58c.36-.24.72-.48,1.07-.71-.55-.38-.94-.74-1.07-.87ZM59.9,40.54c-.38-.22-.76-.42-1.13-.6-1.92-.9-3.93-1.06-4.35-2.28-.3-.86.54-1.65,2.58-1.62,2.04.03,3.93,1.24,4.44,1.68v-3.87c-.15.15-.81.9-1.41.78-1.15-.24-3.12-.55-5.37-.54-2.58,0-4.8,2.01-4.88,4.53-.1,3.53,2.72,4.49,4.31,5.04.16.06.35.12.55.18,1.53-.99,2.73-1.76,3.44-2.16.47-.27,1.1-.67,1.82-1.14Z"/>
  </g>
</svg>