<?xml version="1.0" encoding="UTF-8"?>
<svg width="272px" height="74px" viewBox="0 0 272 74" version="1.1" xmlns="http://www.w3.org/2000/svg" xmlns:xlink="http://www.w3.org/1999/xlink">
    <!-- Generator: Sketch 46.2 (44496) - http://www.bohemiancoding.com/sketch -->
    <title>ViasatLogoFinalWhite</title>
    <desc>Created with Sketch.</desc>
    <defs></defs>
    <g id="Page-1" stroke="none" stroke-width="1" fill="none" fill-rule="evenodd">
        <g id="Tablet" transform="translate(-215.000000, -194.000000)" fill-rule="nonzero" fill="#FFFFFF">
            <g id="viasat" transform="translate(176.000000, 89.000000)">
                <g id="ViasatLogoFinalWhite" transform="translate(39.000000, 105.000000)">
                    <rect id="Rectangle-path" x="0" y="66" width="270" height="8"></rect>
                    <g id="Group" transform="translate(49.000000, 0.000000)">
                        <path d="M103.083548,15.4220315 C100.357993,13.9639485 83.317276,10.8234621 75.2445161,16.7919886 C74.2134409,17.5530758 69.4177419,20.3330472 69.3777778,28.3284692 C69.3777778,28.3284692 82.6298925,28.3284692 82.6298925,28.3284692 C83.1893907,24.074392 86.3385663,23.5055794 88.8483154,23.5937053 C92.237276,23.7218884 94.3154122,25.2280401 93.7239427,26.6060086 C93.1724373,27.8958512 92.3012186,28.6329041 86.258638,29.4660944 C79.2089606,30.4434907 67.3875627,31.8054363 64.5341219,40.3856938 C62.7597133,45.6892704 63.9346595,49.1662375 65.429319,51.0008584 C71.1521864,58.0268956 82.2062724,56.1361946 88.3207885,53.2440629 C88.3207885,53.2440629 88.632509,55.2869814 88.6644803,55.5353362 C88.9362366,55.5353362 104.650143,55.5353362 105.369498,55.5353362 L105.369498,55.5193133 C105.137706,55.4391989 104.913907,55.351073 104.706093,55.2469242 C103.147491,54.5018598 102.172366,52.5550787 102.21233,50.7444921 C102.21233,49.7751073 102.412151,48.6775393 102.699892,47.3556509 C102.699892,47.3556509 103.970753,40.5539342 106.096846,29.1135908 C106.096846,29.1135908 107.247814,23.5376252 107.239821,21.9273247 C107.231828,17.6732475 104.618172,16.2712446 103.083548,15.4220315 Z M81.4389606,47.0912732 C78.7293907,46.9230329 76.4674194,44.2311874 78.6334767,41.5553648 C80.3679211,39.4082976 88.4726523,38.4629471 91.525914,37.0128755 C90.2950179,41.8037196 89.6635842,47.5959943 81.4389606,47.0912732 Z" id="Shape"></path>
                        <path d="M192.37147,15.4220315 C189.645914,13.9639485 172.605197,10.8234621 164.532437,16.7919886 C163.501362,17.5530758 158.705663,20.3330472 158.665699,28.3284692 C158.665699,28.3284692 171.917814,28.3284692 171.917814,28.3284692 C172.477312,24.074392 175.626487,23.5055794 178.136237,23.5937053 C181.525197,23.7218884 183.603333,25.2280401 183.011864,26.6060086 C182.460358,27.8958512 181.58914,28.6329041 175.546559,29.4660944 C168.488889,30.4434907 156.667491,31.8054363 153.81405,40.3856938 C152.039642,45.6892704 153.214588,49.1662375 154.709247,51.0008584 C160.432115,58.0268956 171.486201,56.1361946 177.600717,53.2440629 C177.600717,53.2440629 177.912437,55.2869814 177.944409,55.5353362 C178.216165,55.5353362 193.930072,55.5353362 194.649427,55.5353362 L194.649427,55.5193133 C194.417634,55.4391989 194.193835,55.351073 193.986022,55.2469242 C192.427419,54.5018598 191.452294,52.5550787 191.492258,50.7444921 C191.492258,49.7751073 191.692079,48.6775393 191.979821,47.3556509 C191.979821,47.3556509 193.250681,40.5539342 195.376774,29.1135908 C195.376774,29.1135908 196.527742,23.5376252 196.519749,21.9273247 C196.511756,17.6732475 193.8981,16.2712446 192.37147,15.4220315 Z M170.718889,47.0912732 C168.009319,46.9230329 165.747348,44.2311874 167.913405,41.5553648 C169.647849,39.4082976 177.752581,38.4629471 180.805842,37.0128755 C179.574946,41.8037196 178.943513,47.5959943 170.718889,47.0912732 Z" id="Shape"></path>
                        <path d="M70.6246595,1.05751073 C70.5926882,1.20972818 70.5367384,1.52217454 70.5127599,1.64234621 C70.2489964,1.64234621 58.931147,1.64234621 58.931147,1.64234621 L58.027957,3.42889843 C58.027957,3.42889843 69.8173835,3.42889843 70.1930466,3.42889843 C70.1530824,3.66123033 70.03319,4.30214592 70.0012186,4.47839771 C69.7374552,4.47839771 57.5084229,4.47839771 57.5084229,4.47839771 L56.6691756,6.13676681 C56.6691756,6.13676681 69.3298208,6.13676681 69.7054839,6.13676681 C69.6495341,6.41716738 69.4656989,7.48268956 69.4257348,7.68297568 C69.1619713,7.68297568 55.893871,7.68297568 55.893871,7.68297568 L55.2224731,9.03690987 C55.2224731,9.03690987 68.8022939,9.03690987 69.177957,9.03690987 C69.1220072,9.34134478 68.8262724,10.9917024 68.7863082,11.2080114 C68.5225448,11.2080114 54.1274552,11.2080114 54.1274552,11.2080114 L53.5519713,12.3536481 C53.5519713,12.3536481 68.1948387,12.3536481 68.5784946,12.3536481 C68.5065591,12.730186 60.7375269,55.3911302 60.6895699,55.6635193 C60.4258065,55.6635193 45.263405,55.6635193 44.8877419,55.6635193 C44.9516846,55.27897 52.2251613,14.9974249 52.2251613,14.9974249 C52.2251613,14.9974249 31.8434409,55.4792561 31.7555197,55.6635193 C31.5556989,55.6635193 9.27168459,55.6635193 8.99992832,55.6635193 C8.95996416,55.3911302 0.0959139785,1.44206009 0.0399641577,1.07353362 C0.41562724,1.07353362 17.1046595,1.07353362 17.3764158,1.07353362 C17.4163799,1.34592275 22.9873835,38.5110157 22.9873835,38.5110157 C22.9873835,38.5110157 41.6506452,1.24978541 41.7385663,1.07353362 C41.9144086,1.05751073 70.2410036,1.05751073 70.6246595,1.05751073 Z" id="Shape"></path>
                        <path d="M218.524014,55.9839771 C220.913871,55.9839771 222.984014,54.1413448 222.984014,51.5937053 C222.984014,49.0460658 220.913871,47.195422 218.524014,47.195422 C216.022258,47.195422 213.952115,49.0460658 213.952115,51.5937053 C213.952115,54.1413448 216.022258,55.9839771 218.524014,55.9839771 L218.524014,55.9839771 Z M214.887276,51.5937053 C214.887276,49.4466381 216.437885,47.9164521 218.524014,47.9164521 C220.490251,47.9164521 222.048853,49.4466381 222.048853,51.5937053 C222.048853,53.6286123 220.490251,55.2709585 218.524014,55.2709585 C216.437885,55.2709585 214.887276,53.6286123 214.887276,51.5937053 L214.887276,51.5937053 Z M217.588853,51.8981402 L218.412115,51.8981402 L219.75491,54.1413448 L220.698065,54.1413448 L219.235376,51.8981402 C219.962724,51.7939914 220.594158,51.3854077 220.594158,50.4640916 C220.594158,49.4466381 219.962724,49.0380544 218.723835,49.0380544 L216.757599,49.0380544 L216.757599,54.1413448 L217.596846,54.1413448 L217.596846,51.8981402 L217.588853,51.8981402 Z M217.588853,51.2812589 L217.588853,49.6469242 L218.619928,49.6469242 C219.13147,49.6469242 219.75491,49.8552217 219.75491,50.4640916 C219.75491,51.1771102 219.13147,51.2812589 218.524014,51.2812589 L217.588853,51.2812589 L217.588853,51.2812589 Z" id="Shape"></path>
                        <path d="M207.909534,44.7359084 C207.845591,45.6091559 207.973477,46.2180258 209.691935,46.3381974 C210.499211,46.3942775 211.146631,46.4183119 211.881971,46.3942775 C211.897957,46.3942775 213.048925,46.3622318 213.520502,46.3622318 C213.440573,46.7387697 211.666165,55.4071531 211.618208,55.6635193 C211.362437,55.6635193 201.531254,55.6635193 201.531254,55.6635193 C199.756846,55.6635193 197.446918,55.5032904 195.888315,54.758226 C194.329713,54.0131617 193.354588,52.0663805 193.394552,50.255794 C193.394552,49.2864092 193.594373,48.1808298 193.882115,46.8669528 C193.882115,46.8669528 201.331434,6.75364807 201.803011,4.1739628 C202.066774,4.1739628 215.334875,4.1739628 215.710538,4.1739628 C215.638602,4.55050072 213.504516,15.1336195 213.504516,15.1336195 C213.504516,15.1336195 218.771792,15.1336195 219.123477,15.1336195 C219.059534,15.4941345 217.620824,23.6898426 217.572867,23.9462089 C217.309104,23.9462089 211.85,23.9462089 211.85,23.9462089 L207.909534,44.7359084 Z" id="Shape"></path>
                        <path d="M118.094086,3.95765379 C121.523011,1.73848355 127.197921,-2.61457522e-14 133.26448,0.0240343348 C153.50233,0.496709585 155.828244,13.6515021 155.660394,19.1633763 C155.324695,19.1633763 140.426057,19.1633763 140.138315,19.1633763 C140.114337,18.9150215 140.785735,12.4577969 132.728961,12.5459227 C124.800072,12.6340486 124.072724,17.6972818 128.820466,18.7547926 C130.075341,19.0351931 132.760932,19.4918455 136.197849,20.1167382 C146.116953,21.9193133 149.873584,27.3430615 151.112473,29.9227468 C155.708351,39.5364807 150.768781,52.579113 136.653441,55.206867 C131.026487,56.2483548 124.704158,56.1121602 118.989283,54.7902718 C116.423584,54.1974249 114.409391,52.867525 112.539068,51.3934192 C107.975161,47.7802575 105.889032,42.0600858 105.936989,35.1141631 C106.256703,35.1141631 121.163333,35.0981402 121.467061,35.0981402 C121.475054,35.3625179 121.531004,37.0449213 121.531004,37.0449213 C121.586953,38.7113019 123.561183,40.9865522 126.422616,41.451216 C130.530932,42.1241774 133.608172,41.018598 134.631254,40.1934192 C136.34172,38.8154506 135.830179,36.5081545 134.215627,35.995422 C128.604659,34.2329041 118.142043,34.8257511 112.267312,26.8463519 C109.054194,22.4560801 108.151004,10.4148784 118.094086,3.95765379 Z" id="Shape"></path>
                    </g>
                </g>
            </g>
        </g>
    </g>
</svg>