<?xml version="1.0" encoding="UTF-8"?>
<svg width="264px" height="94px" viewBox="0 0 264 94" version="1.1" xmlns="http://www.w3.org/2000/svg" xmlns:xlink="http://www.w3.org/1999/xlink">
    <!-- Generator: Sketch 46.2 (44496) - http://www.bohemiancoding.com/sketch -->
    <title>Shape</title>
    <desc>Created with Sketch.</desc>
    <defs></defs>
    <g id="Page-1" stroke="none" stroke-width="1" fill="none" fill-rule="evenodd">
        <g id="Tablet" transform="translate(-219.000000, -673.000000)" fill-rule="nonzero" fill="#FFFFFF">
            <g id="nike" transform="translate(176.000000, 560.000000)">
                <g id="logo" transform="translate(43.000000, 113.000000)">
                    <path d="M29.053921,93.8326508 C21.2059771,93.5208832 14.7851764,91.3734492 9.76464249,87.3849736 C8.80649455,86.6230243 6.52333416,84.3385201 5.75735334,83.3749968 C3.72145694,80.8150083 2.33731616,78.3235549 1.41410769,75.5593048 C-1.42674048,67.0501985 0.0353422111,55.8843482 5.59609422,43.6299989 C10.3572698,33.1387493 17.7039665,22.7335045 30.521379,8.32231445 C32.4094545,6.20175701 38.0320225,0 38.0683058,0 C38.0817441,0 37.7753517,0.530811272 37.3896737,1.17719158 C34.0569852,6.7594448 31.2053864,13.3347854 29.6519235,19.0272324 C27.1564386,28.1612178 27.4574557,35.9997548 30.5334734,42.0778799 C32.6553747,46.2652417 36.2931116,49.8922281 40.383718,51.8972165 C47.5449668,55.4059462 58.0294973,55.6962126 70.8334715,52.7465145 C71.7150213,52.542253 115.397429,40.9463784 167.906087,26.977307 C220.414744,13.0068919 263.383581,1.58571469 263.3903,1.59512147 C263.405082,1.6072159 141.397775,53.8148562 78.0619115,80.8996693 C68.0315942,85.1878181 65.3493175,86.2709419 60.6338321,87.9265355 C48.5797128,92.1595874 37.7820709,94.1793579 29.053921,93.8326508 Z" id="Shape"></path>
                </g>
            </g>
        </g>
    </g>
</svg>