<?xml version="1.0" encoding="UTF-8"?>
<svg width="195px" height="195px" viewBox="0 0 195 195" version="1.1" xmlns="http://www.w3.org/2000/svg" xmlns:xlink="http://www.w3.org/1999/xlink">
    <!-- Generator: Sketch 46.2 (44496) - http://www.bohemiancoding.com/sketch -->
    <title>mybrand</title>
    <desc>Created with Sketch.</desc>
    <defs>
        <linearGradient x1="50%" y1="3.70601636%" x2="50%" y2="105.981841%" id="linearGradient-1">
            <stop stop-color="#E380F3" offset="0%"></stop>
            <stop stop-color="#4AC8E2" offset="100%"></stop>
        </linearGradient>
    </defs>
    <g id="Page-1" stroke="none" stroke-width="1" fill="none" fill-rule="evenodd">
        <g id="Portfolio-Objects" transform="translate(-245.000000, -985.000000)">
            <g id="mybrand" transform="translate(246.000000, 986.000000)">
                <g id="Group-3" fill="url(#linearGradient-1)">
                    <circle id="Oval" stroke="#55C2E3" opacity="0.331182065" cx="96.5" cy="96.5" r="96.5"></circle>
                    <circle id="Oval" cx="96.5" cy="96.5" r="92.5"></circle>
                </g>
                <g id="nj" transform="translate(49.000000, 48.000000)" fill="#FFFFFF">
                    <g id="Group-2" opacity="0.333050272">
                        <path d="M75.0522193,16 C75.5848564,19.9230769 75.7624021,23.0384615 75.7624021,28 L75.7624021,81.1923077 C75.7624021,92.1538462 72.0339426,97.5769231 64.310705,97.5769231 C60.4046997,97.5769231 57.4751958,96.0769231 55.078329,92.9615385 C53.7467363,91.2307692 53.0365535,89.7307692 51.7937337,86.1538462 L47,89.1538462 C48.5979112,93.1923077 49.4856397,94.9230769 51.0835509,96.8846154 C54.4569191,101.038462 58.8067885,103 64.310705,103 C74.7859008,103 80.2898172,95.6153846 80.2898172,81.6538462 L80.2898172,28 C80.2898172,22.8076923 80.4673629,19.9230769 81,16 L75.0522193,16 Z" id="J"></path>
                        <path d="M11.052901,7.17362046 C8.61604096,3.49932705 7.74573379,1.92462988 6.96245734,0 L0,0 C0.5221843,2.97442799 0.696245734,5.33647376 0.696245734,9.09825034 L0.696245734,55.9017497 C0.696245734,59.7510094 0.5221843,62.025572 0,65 L5.83105802,65 C5.30887372,62.025572 5.13481229,59.9259758 5.13481229,55.9017497 L5.13481229,14.1722746 C5.13481229,11.4602961 5.04778157,7.87348587 4.78668942,4.63660834 C7.04948805,8.57335128 8.18088737,10.410498 8.96416382,11.6352624 L39.5119454,57.8263795 C41.6877133,61.0632571 42.7320819,62.9004038 43.6894198,65 L51,65 C50.4778157,62.2005384 50.3037543,60.013459 50.3037543,55.9017497 L50.3037543,9.09825034 C50.3037543,5.1615074 50.4778157,2.97442799 51,0 L45.168942,0 C45.6911263,3.06191117 45.8651877,5.1615074 45.8651877,9.09825034 L45.8651877,50.0403769 C45.8651877,50.6527591 46.0392491,54.3270525 46.3003413,60.8882907 C42.9061433,55.2893674 41.8617747,53.6271871 41.165529,52.577389 L11.052901,7.17362046 Z" id="N"></path>
                    </g>
                    <g id="Group-2" opacity="0.983016304" transform="translate(5.000000, 2.000000)">
                        <path d="M75.0522193,16 C75.5848564,19.9230769 75.7624021,23.0384615 75.7624021,28 L75.7624021,81.1923077 C75.7624021,92.1538462 72.0339426,97.5769231 64.310705,97.5769231 C60.4046997,97.5769231 57.4751958,96.0769231 55.078329,92.9615385 C53.7467363,91.2307692 53.0365535,89.7307692 51.7937337,86.1538462 L47,89.1538462 C48.5979112,93.1923077 49.4856397,94.9230769 51.0835509,96.8846154 C54.4569191,101.038462 58.8067885,103 64.310705,103 C74.7859008,103 80.2898172,95.6153846 80.2898172,81.6538462 L80.2898172,28 C80.2898172,22.8076923 80.4673629,19.9230769 81,16 L75.0522193,16 Z" id="J" opacity="0.333050272"></path>
                        <path d="M11.052901,7.17362046 C8.61604096,3.49932705 7.74573379,1.92462988 6.96245734,0 L0,0 C0.5221843,2.97442799 0.696245734,5.33647376 0.696245734,9.09825034 L0.696245734,55.9017497 C0.696245734,59.7510094 0.5221843,62.025572 0,65 L5.83105802,65 C5.30887372,62.025572 5.13481229,59.9259758 5.13481229,55.9017497 L5.13481229,14.1722746 C5.13481229,11.4602961 5.04778157,7.87348587 4.78668942,4.63660834 C7.04948805,8.57335128 8.18088737,10.410498 8.96416382,11.6352624 L39.5119454,57.8263795 C41.6877133,61.0632571 42.7320819,62.9004038 43.6894198,65 L51,65 C50.4778157,62.2005384 50.3037543,60.013459 50.3037543,55.9017497 L50.3037543,9.09825034 C50.3037543,5.1615074 50.4778157,2.97442799 51,0 L45.168942,0 C45.6911263,3.06191117 45.8651877,5.1615074 45.8651877,9.09825034 L45.8651877,50.0403769 C45.8651877,50.6527591 46.0392491,54.3270525 46.3003413,60.8882907 C42.9061433,55.2893674 41.8617747,53.6271871 41.165529,52.577389 L11.052901,7.17362046 Z" id="N" opacity="0.333050272"></path>
                    </g>
                    <g id="Group-2" transform="translate(5.000000, 0.000000)">
                        <path d="M75.0522193,16 C75.5848564,19.9230769 75.7624021,23.0384615 75.7624021,28 L75.7624021,81.1923077 C75.7624021,92.1538462 72.0339426,97.5769231 64.310705,97.5769231 C60.4046997,97.5769231 57.4751958,96.0769231 55.078329,92.9615385 C53.7467363,91.2307692 53.0365535,89.7307692 51.7937337,86.1538462 L47,89.1538462 C48.5979112,93.1923077 49.4856397,94.9230769 51.0835509,96.8846154 C54.4569191,101.038462 58.8067885,103 64.310705,103 C74.7859008,103 80.2898172,95.6153846 80.2898172,81.6538462 L80.2898172,28 C80.2898172,22.8076923 80.4673629,19.9230769 81,16 L75.0522193,16 Z" id="J"></path>
                        <path d="M11.052901,7.17362046 C8.61604096,3.49932705 7.74573379,1.92462988 6.96245734,0 L0,0 C0.5221843,2.97442799 0.696245734,5.33647376 0.696245734,9.09825034 L0.696245734,55.9017497 C0.696245734,59.7510094 0.5221843,62.025572 0,65 L5.83105802,65 C5.30887372,62.025572 5.13481229,59.9259758 5.13481229,55.9017497 L5.13481229,14.1722746 C5.13481229,11.4602961 5.04778157,7.87348587 4.78668942,4.63660834 C7.04948805,8.57335128 8.18088737,10.410498 8.96416382,11.6352624 L39.5119454,57.8263795 C41.6877133,61.0632571 42.7320819,62.9004038 43.6894198,65 L51,65 C50.4778157,62.2005384 50.3037543,60.013459 50.3037543,55.9017497 L50.3037543,9.09825034 C50.3037543,5.1615074 50.4778157,2.97442799 51,0 L45.168942,0 C45.6911263,3.06191117 45.8651877,5.1615074 45.8651877,9.09825034 L45.8651877,50.0403769 C45.8651877,50.6527591 46.0392491,54.3270525 46.3003413,60.8882907 C42.9061433,55.2893674 41.8617747,53.6271871 41.165529,52.577389 L11.052901,7.17362046 Z" id="N"></path>
                    </g>
                </g>
            </g>
        </g>
    </g>
</svg>