<?xml version="1.0" encoding="UTF-8"?>
<svg id="Layer_1" xmlns="http://www.w3.org/2000/svg" version="1.1" viewBox="0 0 264 94">
  <!-- Generator: Adobe Illustrator 29.5.1, SVG Export Plug-In . SVG Version: 2.1.0 Build 141)  -->
  <g id="Page-1">
    <g id="Tablet">
      <g id="nike">
        <g id="logo">
          <path id="Shape" d="M29.05,93.83c-7.85-.31-14.27-2.46-19.29-6.45-.96-.76-3.24-3.05-4.01-4.01-2.04-2.56-3.42-5.05-4.34-7.82C-1.43,67.05.04,55.88,5.6,43.63c4.76-10.49,12.11-20.9,24.93-35.31,1.89-2.12,7.51-8.32,7.55-8.32.01,0-.29.53-.68,1.18-3.33,5.58-6.18,12.16-7.74,17.85-2.5,9.13-2.19,16.97.88,23.05,2.12,4.19,5.76,7.81,9.85,9.82,7.16,3.51,17.65,3.8,30.45.85.88-.2,44.56-11.8,97.07-25.77C220.41,13.01,263.38,1.59,263.39,1.6c.01.01-121.99,52.22-185.33,79.3-10.03,4.29-12.71,5.37-17.43,7.03-12.05,4.23-22.85,6.25-31.58,5.91Z"/>
        </g>
      </g>
    </g>
  </g>
</svg>